# Tiled2Unity generated file. Do not modify by hand.
# Wavefront file for 'testing_level_mesh_0015.obj'

# Vertices (Count = 88)
v -1408 -544 0
v -1440 -544 0
v -1440 -512 0
v -1408 -512 0
v -1440 -544 0
v -1472 -544 0
v -1472 -512 0
v -1440 -512 0
v -1472 -544 0
v -1504 -544 0
v -1504 -512 0
v -1472 -512 0
v -1504 -544 0
v -1536 -544 0
v -1536 -512 0
v -1504 -512 0
v -1536 -544 0
v -1568 -544 0
v -1568 -512 0
v -1536 -512 0
v -1568 -544 0
v -1600 -544 0
v -1600 -512 0
v -1568 -512 0
v -1600 -544 0
v -1632 -544 0
v -1632 -512 0
v -1600 -512 0
v -1632 -544 0
v -1664 -544 0
v -1664 -512 0
v -1632 -512 0
v -1664 -544 0
v -1696 -544 0
v -1696 -512 0
v -1664 -512 0
v -1696 -544 0
v -1728 -544 0
v -1728 -512 0
v -1696 -512 0
v -1408 -576 0
v -1440 -576 0
v -1440 -544 0
v -1408 -544 0
v -1440 -576 0
v -1472 -576 0
v -1472 -544 0
v -1440 -544 0
v -1472 -576 0
v -1504 -576 0
v -1504 -544 0
v -1472 -544 0
v -1504 -576 0
v -1536 -576 0
v -1536 -544 0
v -1504 -544 0
v -1536 -576 0
v -1568 -576 0
v -1568 -544 0
v -1536 -544 0
v -1568 -576 0
v -1600 -576 0
v -1600 -544 0
v -1568 -544 0
v -1600 -576 0
v -1632 -576 0
v -1632 -544 0
v -1600 -544 0
v -1632 -576 0
v -1664 -576 0
v -1664 -544 0
v -1632 -544 0
v -1664 -576 0
v -1696 -576 0
v -1696 -544 0
v -1664 -544 0
v -1696 -576 0
v -1728 -576 0
v -1728 -544 0
v -1696 -544 0
v -1408 -608 0
v -1440 -608 0
v -1440 -576 0
v -1408 -576 0
v -1696 -608 0
v -1728 -608 0
v -1728 -576 0
v -1696 -576 0

# Texture cooridinates (Count = 16)
vt 0.5 0.46875
vt 0.53125 0.46875
vt 0.53125 0.5
vt 0.5 0.5
vt 0.5625 0.46875
vt 0.5625 0.5
vt 0.59375 0.46875
vt 0.59375 0.5
vt 0.5 0.4375
vt 0.53125 0.4375
vt 0.5625 0.4375
vt 0.59375 0.4375
vt 0.5 0.40625
vt 0.53125 0.40625
vt 0.5625 0.40625
vt 0.59375 0.40625

# Normal
vn 0 0 -1

# Mesh description
g testing_level_mesh_0015

# Faces
f 1/1/1 2/2/1 3/3/1 4/4/1
f 5/2/1 6/5/1 7/6/1 8/3/1
f 9/2/1 10/5/1 11/6/1 12/3/1
f 13/2/1 14/5/1 15/6/1 16/3/1
f 17/2/1 18/5/1 19/6/1 20/3/1
f 21/2/1 22/5/1 23/6/1 24/3/1
f 25/2/1 26/5/1 27/6/1 28/3/1
f 29/2/1 30/5/1 31/6/1 32/3/1
f 33/2/1 34/5/1 35/6/1 36/3/1
f 37/5/1 38/7/1 39/8/1 40/6/1
f 41/9/1 42/10/1 43/2/1 44/1/1
f 45/10/1 46/11/1 47/5/1 48/2/1
f 49/10/1 50/11/1 51/5/1 52/2/1
f 53/10/1 54/11/1 55/5/1 56/2/1
f 57/10/1 58/11/1 59/5/1 60/2/1
f 61/10/1 62/11/1 63/5/1 64/2/1
f 65/10/1 66/11/1 67/5/1 68/2/1
f 69/10/1 70/11/1 71/5/1 72/2/1
f 73/10/1 74/11/1 75/5/1 76/2/1
f 77/11/1 78/12/1 79/7/1 80/5/1
f 81/13/1 82/14/1 83/10/1 84/9/1
f 85/15/1 86/16/1 87/12/1 88/11/1

