# Tiled2Unity generated file. Do not modify by hand.
# Wavefront file for 'testing_level_mesh_0007.obj'

# Vertices (Count = 436)
v -1760 -32 0
v -1792 -32 0
v -1792 0 0
v -1760 0 0
v -224 -64 0
v -256 -64 0
v -256 -32 0
v -224 -32 0
v -448 -64 0
v -480 -64 0
v -480 -32 0
v -448 -32 0
v -640 -64 0
v -672 -64 0
v -672 -32 0
v -640 -32 0
v -896 -64 0
v -928 -64 0
v -928 -32 0
v -896 -32 0
v -1472 -64 0
v -1504 -64 0
v -1504 -32 0
v -1472 -32 0
v -1760 -64 0
v -1792 -64 0
v -1792 -32 0
v -1760 -32 0
v -1920 -64 0
v -1952 -64 0
v -1952 -32 0
v -1920 -32 0
v -3392 -64 0
v -3424 -64 0
v -3424 -32 0
v -3392 -32 0
v -224 -96 0
v -256 -96 0
v -256 -64 0
v -224 -64 0
v -448 -96 0
v -480 -96 0
v -480 -64 0
v -448 -64 0
v -640 -96 0
v -672 -96 0
v -672 -64 0
v -640 -64 0
v -864 -96 0
v -896 -96 0
v -896 -64 0
v -864 -64 0
v -896 -96 0
v -928 -96 0
v -928 -64 0
v -896 -64 0
v -1344 -96 0
v -1376 -96 0
v -1376 -64 0
v -1344 -64 0
v -1440 -96 0
v -1472 -96 0
v -1472 -64 0
v -1440 -64 0
v -1472 -96 0
v -1504 -96 0
v -1504 -64 0
v -1472 -64 0
v -1760 -96 0
v -1792 -96 0
v -1792 -64 0
v -1760 -64 0
v -1920 -96 0
v -1952 -96 0
v -1952 -64 0
v -1920 -64 0
v -2176 -96 0
v -2208 -96 0
v -2208 -64 0
v -2176 -64 0
v -2304 -96 0
v -2336 -96 0
v -2336 -64 0
v -2304 -64 0
v -2528 -96 0
v -2560 -96 0
v -2560 -64 0
v -2528 -64 0
v -3392 -96 0
v -3424 -96 0
v -3424 -64 0
v -3392 -64 0
v -3968 -96 0
v -4000 -96 0
v -4000 -64 0
v -3968 -64 0
v -4096 -96 0
v -4128 -96 0
v -4128 -64 0
v -4096 -64 0
v -4608 -96 0
v -4640 -96 0
v -4640 -64 0
v -4608 -64 0
v -4864 -96 0
v -4896 -96 0
v -4896 -64 0
v -4864 -64 0
v -5984 -96 0
v -6016 -96 0
v -6016 -64 0
v -5984 -64 0
v -416 -128 0
v -448 -128 0
v -448 -96 0
v -416 -96 0
v -1024 -128 0
v -1056 -128 0
v -1056 -96 0
v -1024 -96 0
v -1312 -128 0
v -1344 -128 0
v -1344 -96 0
v -1312 -96 0
v -1760 -128 0
v -1792 -128 0
v -1792 -96 0
v -1760 -96 0
v -2304 -128 0
v -2336 -128 0
v -2336 -96 0
v -2304 -96 0
v -2688 -128 0
v -2720 -128 0
v -2720 -96 0
v -2688 -96 0
v -3392 -128 0
v -3424 -128 0
v -3424 -96 0
v -3392 -96 0
v -3552 -128 0
v -3584 -128 0
v -3584 -96 0
v -3552 -96 0
v -3712 -128 0
v -3744 -128 0
v -3744 -96 0
v -3712 -96 0
v -4672 -128 0
v -4704 -128 0
v -4704 -96 0
v -4672 -96 0
v -4832 -128 0
v -4864 -128 0
v -4864 -96 0
v -4832 -96 0
v -4896 -128 0
v -4928 -128 0
v -4928 -96 0
v -4896 -96 0
v -4928 -128 0
v -4960 -128 0
v -4960 -96 0
v -4928 -96 0
v -5120 -128 0
v -5152 -128 0
v -5152 -96 0
v -5120 -96 0
v -5472 -128 0
v -5504 -128 0
v -5504 -96 0
v -5472 -96 0
v -5760 -128 0
v -5792 -128 0
v -5792 -96 0
v -5760 -96 0
v -5984 -128 0
v -6016 -128 0
v -6016 -96 0
v -5984 -96 0
v -96 -160 0
v -128 -160 0
v -128 -128 0
v -96 -128 0
v -3008 -160 0
v -3040 -160 0
v -3040 -128 0
v -3008 -128 0
v -3168 -160 0
v -3200 -160 0
v -3200 -128 0
v -3168 -128 0
v -4672 -160 0
v -4704 -160 0
v -4704 -128 0
v -4672 -128 0
v -4704 -160 0
v -4736 -160 0
v -4736 -128 0
v -4704 -128 0
v -4736 -160 0
v -4768 -160 0
v -4768 -128 0
v -4736 -128 0
v -4768 -160 0
v -4800 -160 0
v -4800 -128 0
v -4768 -128 0
v -4800 -160 0
v -4832 -160 0
v -4832 -128 0
v -4800 -128 0
v -4832 -160 0
v -4864 -160 0
v -4864 -128 0
v -4832 -128 0
v -4864 -160 0
v -4896 -160 0
v -4896 -128 0
v -4864 -128 0
v -4896 -160 0
v -4928 -160 0
v -4928 -128 0
v -4896 -128 0
v -4928 -160 0
v -4960 -160 0
v -4960 -128 0
v -4928 -128 0
v -5472 -160 0
v -5504 -160 0
v -5504 -128 0
v -5472 -128 0
v -5728 -160 0
v -5760 -160 0
v -5760 -128 0
v -5728 -128 0
v -6208 -160 0
v -6240 -160 0
v -6240 -128 0
v -6208 -128 0
v -4704 -192 0
v -4736 -192 0
v -4736 -160 0
v -4704 -160 0
v -4736 -192 0
v -4768 -192 0
v -4768 -160 0
v -4736 -160 0
v -4768 -192 0
v -4800 -192 0
v -4800 -160 0
v -4768 -160 0
v -4800 -192 0
v -4832 -192 0
v -4832 -160 0
v -4800 -160 0
v -4832 -192 0
v -4864 -192 0
v -4864 -160 0
v -4832 -160 0
v -4896 -192 0
v -4928 -192 0
v -4928 -160 0
v -4896 -160 0
v -4928 -192 0
v -4960 -192 0
v -4960 -160 0
v -4928 -160 0
v -5440 -192 0
v -5472 -192 0
v -5472 -160 0
v -5440 -160 0
v -4704 -224 0
v -4736 -224 0
v -4736 -192 0
v -4704 -192 0
v -4736 -224 0
v -4768 -224 0
v -4768 -192 0
v -4736 -192 0
v -4832 -224 0
v -4864 -224 0
v -4864 -192 0
v -4832 -192 0
v -4896 -224 0
v -4928 -224 0
v -4928 -192 0
v -4896 -192 0
v -4704 -256 0
v -4736 -256 0
v -4736 -224 0
v -4704 -224 0
v -3360 -288 0
v -3392 -288 0
v -3392 -256 0
v -3360 -256 0
v -320 -384 0
v -352 -384 0
v -352 -352 0
v -320 -352 0
v -3424 -416 0
v -3456 -416 0
v -3456 -384 0
v -3424 -384 0
v -3808 -416 0
v -3840 -416 0
v -3840 -384 0
v -3808 -384 0
v -4192 -416 0
v -4224 -416 0
v -4224 -384 0
v -4192 -384 0
v -576 -448 0
v -608 -448 0
v -608 -416 0
v -576 -416 0
v -3296 -448 0
v -3328 -448 0
v -3328 -416 0
v -3296 -416 0
v -4352 -448 0
v -4384 -448 0
v -4384 -416 0
v -4352 -416 0
v -5152 -448 0
v -5184 -448 0
v -5184 -416 0
v -5152 -416 0
v -5472 -448 0
v -5504 -448 0
v -5504 -416 0
v -5472 -416 0
v 0 -512 0
v -32 -512 0
v -32 -480 0
v 0 -480 0
v -416 -512 0
v -448 -512 0
v -448 -480 0
v -416 -480 0
v -1152 -512 0
v -1184 -512 0
v -1184 -480 0
v -1152 -480 0
v -5536 -512 0
v -5568 -512 0
v -5568 -480 0
v -5536 -480 0
v -6336 -512 0
v -6368 -512 0
v -6368 -480 0
v -6336 -480 0
v -992 -544 0
v -1024 -544 0
v -1024 -512 0
v -992 -512 0
v -736 -576 0
v -768 -576 0
v -768 -544 0
v -736 -544 0
v -992 -576 0
v -1024 -576 0
v -1024 -544 0
v -992 -544 0
v -5376 -576 0
v -5408 -576 0
v -5408 -544 0
v -5376 -544 0
v -3040 -608 0
v -3072 -608 0
v -3072 -576 0
v -3040 -576 0
v -1984 -640 0
v -2016 -640 0
v -2016 -608 0
v -1984 -608 0
v -2144 -640 0
v -2176 -640 0
v -2176 -608 0
v -2144 -608 0
v -5952 -640 0
v -5984 -640 0
v -5984 -608 0
v -5952 -608 0
v -2144 -672 0
v -2176 -672 0
v -2176 -640 0
v -2144 -640 0
v -2880 -672 0
v -2912 -672 0
v -2912 -640 0
v -2880 -640 0
v 0 -896 0
v -32 -896 0
v -32 -864 0
v 0 -864 0
v -512 -896 0
v -544 -896 0
v -544 -864 0
v -512 -864 0
v -1568 -896 0
v -1600 -896 0
v -1600 -864 0
v -1568 -864 0
v -1888 -896 0
v -1920 -896 0
v -1920 -864 0
v -1888 -864 0
v -4160 -896 0
v -4192 -896 0
v -4192 -864 0
v -4160 -864 0
v -5024 -896 0
v -5056 -896 0
v -5056 -864 0
v -5024 -864 0
v -6336 -896 0
v -6368 -896 0
v -6368 -864 0
v -6336 -864 0
v -1120 -928 0
v -1152 -928 0
v -1152 -896 0
v -1120 -896 0
v -1600 -928 0
v -1632 -928 0
v -1632 -896 0
v -1600 -896 0
v -1888 -928 0
v -1920 -928 0
v -1920 -896 0
v -1888 -896 0
v -1920 -928 0
v -1952 -928 0
v -1952 -896 0
v -1920 -896 0

# Texture cooridinates (Count = 18)
vt 0.6875 0.1875
vt 0.75 0.1875
vt 0.75 0.25
vt 0.6875 0.25
vt 0.8125 0.1875
vt 0.8125 0.25
vt 0.6875 0.125
vt 0.75 0.125
vt 0.75 0
vt 0.8125 0
vt 0.8125 0.0625
vt 0.75 0.0625
vt 0.8125 0.125
vt 0.875 0.1875
vt 0.875 0.25
vt 0.875 0.125
vt 0.6875 0.0625
vt 0.6875 0

# Normal
vn 0 0 -1

# Mesh description
g testing_level_mesh_0007

# Faces
f 1/1/1 2/2/1 3/3/1 4/4/1
f 5/1/1 6/2/1 7/3/1 8/4/1
f 9/1/1 10/2/1 11/3/1 12/4/1
f 13/1/1 14/2/1 15/3/1 16/4/1
f 17/1/1 18/2/1 19/3/1 20/4/1
f 21/2/1 22/5/1 23/6/1 24/3/1
f 25/7/1 26/8/1 27/2/1 28/1/1
f 29/1/1 30/2/1 31/3/1 32/4/1
f 33/1/1 34/2/1 35/3/1 36/4/1
f 37/7/1 38/8/1 39/2/1 40/1/1
f 41/7/1 42/8/1 43/2/1 44/1/1
f 45/7/1 46/8/1 47/2/1 48/1/1
f 49/9/1 50/10/1 51/11/1 52/12/1
f 53/7/1 54/8/1 55/2/1 56/1/1
f 57/9/1 58/10/1 59/11/1 60/12/1
f 61/2/1 62/5/1 63/6/1 64/3/1
f 65/9/1 66/10/1 67/11/1 68/12/1
f 69/9/1 70/10/1 71/11/1 72/12/1
f 73/7/1 74/8/1 75/2/1 76/1/1
f 77/9/1 78/10/1 79/11/1 80/12/1
f 81/1/1 82/2/1 83/3/1 84/4/1
f 85/9/1 86/10/1 87/11/1 88/12/1
f 89/7/1 90/8/1 91/2/1 92/1/1
f 93/9/1 94/10/1 95/11/1 96/12/1
f 97/2/1 98/5/1 99/6/1 100/3/1
f 101/9/1 102/10/1 103/11/1 104/12/1
f 105/2/1 106/5/1 107/6/1 108/3/1
f 109/1/1 110/2/1 111/3/1 112/4/1
f 113/9/1 114/10/1 115/11/1 116/12/1
f 117/2/1 118/5/1 119/6/1 120/3/1
f 121/2/1 122/5/1 123/6/1 124/3/1
f 125/2/1 126/5/1 127/6/1 128/3/1
f 129/7/1 130/8/1 131/2/1 132/1/1
f 133/2/1 134/5/1 135/6/1 136/3/1
f 137/9/1 138/10/1 139/11/1 140/12/1
f 141/2/1 142/5/1 143/6/1 144/3/1
f 145/2/1 146/5/1 147/6/1 148/3/1
f 149/1/1 150/2/1 151/3/1 152/4/1
f 153/8/1 154/13/1 155/5/1 156/2/1
f 157/1/1 158/2/1 159/3/1 160/4/1
f 161/2/1 162/5/1 163/6/1 164/3/1
f 165/2/1 166/5/1 167/6/1 168/3/1
f 169/1/1 170/2/1 171/3/1 172/4/1
f 173/9/1 174/10/1 175/11/1 176/12/1
f 177/7/1 178/8/1 179/2/1 180/1/1
f 181/9/1 182/10/1 183/11/1 184/12/1
f 185/9/1 186/10/1 187/11/1 188/12/1
f 189/2/1 190/5/1 191/6/1 192/3/1
f 193/7/1 194/8/1 195/2/1 196/1/1
f 197/1/1 198/2/1 199/3/1 200/4/1
f 201/9/1 202/10/1 203/11/1 204/12/1
f 205/5/1 206/14/1 207/15/1 208/6/1
f 209/1/1 210/2/1 211/3/1 212/4/1
f 213/12/1 214/11/1 215/13/1 216/8/1
f 217/9/1 218/10/1 219/11/1 220/12/1
f 221/7/1 222/8/1 223/2/1 224/1/1
f 225/1/1 226/2/1 227/3/1 228/4/1
f 229/7/1 230/8/1 231/2/1 232/1/1
f 233/9/1 234/10/1 235/11/1 236/12/1
f 237/9/1 238/10/1 239/11/1 240/12/1
f 241/7/1 242/8/1 243/2/1 244/1/1
f 245/8/1 246/13/1 247/5/1 248/2/1
f 249/13/1 250/16/1 251/14/1 252/5/1
f 253/7/1 254/8/1 255/2/1 256/1/1
f 257/8/1 258/13/1 259/5/1 260/2/1
f 261/17/1 262/12/1 263/8/1 264/7/1
f 265/7/1 266/8/1 267/2/1 268/1/1
f 269/2/1 270/5/1 271/6/1 272/3/1
f 273/1/1 274/2/1 275/3/1 276/4/1
f 277/12/1 278/11/1 279/13/1 280/8/1
f 281/12/1 282/11/1 283/13/1 284/8/1
f 285/18/1 286/9/1 287/12/1 288/17/1
f 289/7/1 290/8/1 291/2/1 292/1/1
f 293/9/1 294/10/1 295/11/1 296/12/1
f 297/2/1 298/5/1 299/6/1 300/3/1
f 301/2/1 302/5/1 303/6/1 304/3/1
f 305/2/1 306/5/1 307/6/1 308/3/1
f 309/2/1 310/5/1 311/6/1 312/3/1
f 313/2/1 314/5/1 315/6/1 316/3/1
f 317/2/1 318/5/1 319/6/1 320/3/1
f 321/9/1 322/10/1 323/11/1 324/12/1
f 325/9/1 326/10/1 327/11/1 328/12/1
f 329/2/1 330/5/1 331/6/1 332/3/1
f 333/9/1 334/10/1 335/11/1 336/12/1
f 337/2/1 338/5/1 339/6/1 340/3/1
f 341/9/1 342/10/1 343/11/1 344/12/1
f 345/2/1 346/5/1 347/6/1 348/3/1
f 349/9/1 350/10/1 351/11/1 352/12/1
f 353/1/1 354/2/1 355/3/1 356/4/1
f 357/9/1 358/10/1 359/11/1 360/12/1
f 361/7/1 362/8/1 363/2/1 364/1/1
f 365/9/1 366/10/1 367/11/1 368/12/1
f 369/9/1 370/10/1 371/11/1 372/12/1
f 373/9/1 374/10/1 375/11/1 376/12/1
f 377/1/1 378/2/1 379/3/1 380/4/1
f 381/9/1 382/10/1 383/11/1 384/12/1
f 385/7/1 386/8/1 387/2/1 388/1/1
f 389/2/1 390/5/1 391/6/1 392/3/1
f 393/2/1 394/5/1 395/6/1 396/3/1
f 397/9/1 398/10/1 399/11/1 400/12/1
f 401/2/1 402/5/1 403/6/1 404/3/1
f 405/1/1 406/2/1 407/3/1 408/4/1
f 409/2/1 410/5/1 411/6/1 412/3/1
f 413/2/1 414/5/1 415/6/1 416/3/1
f 417/9/1 418/10/1 419/11/1 420/12/1
f 421/2/1 422/5/1 423/6/1 424/3/1
f 425/2/1 426/5/1 427/6/1 428/3/1
f 429/7/1 430/8/1 431/2/1 432/1/1
f 433/2/1 434/5/1 435/6/1 436/3/1

