# Tiled2Unity generated file. Do not modify by hand.
# Wavefront file for 'level_desert_mesh_0002.obj'

# Vertices (Count = 1016)
v 0 -1 0
v -1 -1 0
v -1 0 0
v 0 0 0
v -1 -1 0
v -2 -1 0
v -2 0 0
v -1 0 0
v -2 -1 0
v -3 -1 0
v -3 0 0
v -2 0 0
v -3 -1 0
v -4 -1 0
v -4 0 0
v -3 0 0
v -4 -1 0
v -5 -1 0
v -5 0 0
v -4 0 0
v -5 -1 0
v -6 -1 0
v -6 0 0
v -5 0 0
v -6 -1 0
v -7 -1 0
v -7 0 0
v -6 0 0
v -7 -1 0
v -8 -1 0
v -8 0 0
v -7 0 0
v -8 -1 0
v -9 -1 0
v -9 0 0
v -8 0 0
v -9 -1 0
v -10 -1 0
v -10 0 0
v -9 0 0
v -10 -1 0
v -11 -1 0
v -11 0 0
v -10 0 0
v -11 -1 0
v -12 -1 0
v -12 0 0
v -11 0 0
v -12 -1 0
v -13 -1 0
v -13 0 0
v -12 0 0
v -13 -1 0
v -14 -1 0
v -14 0 0
v -13 0 0
v -14 -1 0
v -15 -1 0
v -15 0 0
v -14 0 0
v -15 -1 0
v -16 -1 0
v -16 0 0
v -15 0 0
v -16 -1 0
v -17 -1 0
v -17 0 0
v -16 0 0
v -17 -1 0
v -18 -1 0
v -18 0 0
v -17 0 0
v -18 -1 0
v -19 -1 0
v -19 0 0
v -18 0 0
v -19 -1 0
v -20 -1 0
v -20 0 0
v -19 0 0
v 0 -2 0
v -1 -2 0
v -1 -1 0
v 0 -1 0
v -1 -2 0
v -2 -2 0
v -2 -1 0
v -1 -1 0
v -2 -2 0
v -3 -2 0
v -3 -1 0
v -2 -1 0
v -3 -2 0
v -4 -2 0
v -4 -1 0
v -3 -1 0
v -4 -2 0
v -5 -2 0
v -5 -1 0
v -4 -1 0
v -5 -2 0
v -6 -2 0
v -6 -1 0
v -5 -1 0
v -6 -2 0
v -7 -2 0
v -7 -1 0
v -6 -1 0
v -7 -2 0
v -8 -2 0
v -8 -1 0
v -7 -1 0
v -8 -2 0
v -9 -2 0
v -9 -1 0
v -8 -1 0
v -9 -2 0
v -10 -2 0
v -10 -1 0
v -9 -1 0
v -10 -2 0
v -11 -2 0
v -11 -1 0
v -10 -1 0
v -11 -2 0
v -12 -2 0
v -12 -1 0
v -11 -1 0
v -12 -2 0
v -13 -2 0
v -13 -1 0
v -12 -1 0
v -13 -2 0
v -14 -2 0
v -14 -1 0
v -13 -1 0
v -14 -2 0
v -15 -2 0
v -15 -1 0
v -14 -1 0
v -15 -2 0
v -16 -2 0
v -16 -1 0
v -15 -1 0
v -16 -2 0
v -17 -2 0
v -17 -1 0
v -16 -1 0
v -17 -2 0
v -18 -2 0
v -18 -1 0
v -17 -1 0
v -18 -2 0
v -19 -2 0
v -19 -1 0
v -18 -1 0
v -19 -2 0
v -20 -2 0
v -20 -1 0
v -19 -1 0
v 0 -3 0
v -1 -3 0
v -1 -2 0
v 0 -2 0
v -1 -3 0
v -2 -3 0
v -2 -2 0
v -1 -2 0
v -2 -3 0
v -3 -3 0
v -3 -2 0
v -2 -2 0
v -3 -3 0
v -4 -3 0
v -4 -2 0
v -3 -2 0
v -4 -3 0
v -5 -3 0
v -5 -2 0
v -4 -2 0
v -5 -3 0
v -6 -3 0
v -6 -2 0
v -5 -2 0
v -6 -3 0
v -7 -3 0
v -7 -2 0
v -6 -2 0
v -7 -3 0
v -8 -3 0
v -8 -2 0
v -7 -2 0
v -8 -3 0
v -9 -3 0
v -9 -2 0
v -8 -2 0
v -9 -3 0
v -10 -3 0
v -10 -2 0
v -9 -2 0
v -10 -3 0
v -11 -3 0
v -11 -2 0
v -10 -2 0
v -11 -3 0
v -12 -3 0
v -12 -2 0
v -11 -2 0
v -12 -3 0
v -13 -3 0
v -13 -2 0
v -12 -2 0
v -13 -3 0
v -14 -3 0
v -14 -2 0
v -13 -2 0
v -14 -3 0
v -15 -3 0
v -15 -2 0
v -14 -2 0
v -15 -3 0
v -16 -3 0
v -16 -2 0
v -15 -2 0
v -16 -3 0
v -17 -3 0
v -17 -2 0
v -16 -2 0
v -17 -3 0
v -18 -3 0
v -18 -2 0
v -17 -2 0
v -18 -3 0
v -19 -3 0
v -19 -2 0
v -18 -2 0
v -19 -3 0
v -20 -3 0
v -20 -2 0
v -19 -2 0
v 0 -4 0
v -1 -4 0
v -1 -3 0
v 0 -3 0
v -1 -4 0
v -2 -4 0
v -2 -3 0
v -1 -3 0
v -2 -4 0
v -3 -4 0
v -3 -3 0
v -2 -3 0
v -3 -4 0
v -4 -4 0
v -4 -3 0
v -3 -3 0
v -4 -4 0
v -5 -4 0
v -5 -3 0
v -4 -3 0
v -5 -4 0
v -6 -4 0
v -6 -3 0
v -5 -3 0
v -6 -4 0
v -7 -4 0
v -7 -3 0
v -6 -3 0
v -7 -4 0
v -8 -4 0
v -8 -3 0
v -7 -3 0
v -8 -4 0
v -9 -4 0
v -9 -3 0
v -8 -3 0
v -9 -4 0
v -10 -4 0
v -10 -3 0
v -9 -3 0
v -10 -4 0
v -11 -4 0
v -11 -3 0
v -10 -3 0
v -11 -4 0
v -12 -4 0
v -12 -3 0
v -11 -3 0
v -12 -4 0
v -13 -4 0
v -13 -3 0
v -12 -3 0
v -13 -4 0
v -14 -4 0
v -14 -3 0
v -13 -3 0
v -14 -4 0
v -15 -4 0
v -15 -3 0
v -14 -3 0
v -15 -4 0
v -16 -4 0
v -16 -3 0
v -15 -3 0
v -16 -4 0
v -17 -4 0
v -17 -3 0
v -16 -3 0
v -17 -4 0
v -18 -4 0
v -18 -3 0
v -17 -3 0
v -18 -4 0
v -19 -4 0
v -19 -3 0
v -18 -3 0
v -19 -4 0
v -20 -4 0
v -20 -3 0
v -19 -3 0
v 0 -5 0
v -1 -5 0
v -1 -4 0
v 0 -4 0
v -1 -5 0
v -2 -5 0
v -2 -4 0
v -1 -4 0
v -2 -5 0
v -3 -5 0
v -3 -4 0
v -2 -4 0
v -3 -5 0
v -4 -5 0
v -4 -4 0
v -3 -4 0
v -4 -5 0
v -5 -5 0
v -5 -4 0
v -4 -4 0
v -5 -5 0
v -6 -5 0
v -6 -4 0
v -5 -4 0
v -6 -5 0
v -7 -5 0
v -7 -4 0
v -6 -4 0
v -7 -5 0
v -8 -5 0
v -8 -4 0
v -7 -4 0
v -8 -5 0
v -9 -5 0
v -9 -4 0
v -8 -4 0
v -9 -5 0
v -10 -5 0
v -10 -4 0
v -9 -4 0
v -10 -5 0
v -11 -5 0
v -11 -4 0
v -10 -4 0
v -11 -5 0
v -12 -5 0
v -12 -4 0
v -11 -4 0
v -12 -5 0
v -13 -5 0
v -13 -4 0
v -12 -4 0
v -13 -5 0
v -14 -5 0
v -14 -4 0
v -13 -4 0
v -14 -5 0
v -15 -5 0
v -15 -4 0
v -14 -4 0
v -15 -5 0
v -16 -5 0
v -16 -4 0
v -15 -4 0
v -16 -5 0
v -17 -5 0
v -17 -4 0
v -16 -4 0
v -17 -5 0
v -18 -5 0
v -18 -4 0
v -17 -4 0
v -18 -5 0
v -19 -5 0
v -19 -4 0
v -18 -4 0
v -19 -5 0
v -20 -5 0
v -20 -4 0
v -19 -4 0
v 0 -6 0
v -1 -6 0
v -1 -5 0
v 0 -5 0
v -1 -6 0
v -2 -6 0
v -2 -5 0
v -1 -5 0
v -2 -6 0
v -3 -6 0
v -3 -5 0
v -2 -5 0
v -17 -6 0
v -18 -6 0
v -18 -5 0
v -17 -5 0
v -18 -6 0
v -19 -6 0
v -19 -5 0
v -18 -5 0
v -19 -6 0
v -20 -6 0
v -20 -5 0
v -19 -5 0
v 0 -7 0
v -1 -7 0
v -1 -6 0
v 0 -6 0
v -1 -7 0
v -2 -7 0
v -2 -6 0
v -1 -6 0
v -2 -7 0
v -3 -7 0
v -3 -6 0
v -2 -6 0
v -17 -7 0
v -18 -7 0
v -18 -6 0
v -17 -6 0
v -18 -7 0
v -19 -7 0
v -19 -6 0
v -18 -6 0
v -19 -7 0
v -20 -7 0
v -20 -6 0
v -19 -6 0
v 0 -8 0
v -1 -8 0
v -1 -7 0
v 0 -7 0
v -1 -8 0
v -2 -8 0
v -2 -7 0
v -1 -7 0
v -2 -8 0
v -3 -8 0
v -3 -7 0
v -2 -7 0
v -17 -8 0
v -18 -8 0
v -18 -7 0
v -17 -7 0
v -18 -8 0
v -19 -8 0
v -19 -7 0
v -18 -7 0
v -19 -8 0
v -20 -8 0
v -20 -7 0
v -19 -7 0
v 0 -9 0
v -1 -9 0
v -1 -8 0
v 0 -8 0
v -1 -9 0
v -2 -9 0
v -2 -8 0
v -1 -8 0
v -2 -9 0
v -3 -9 0
v -3 -8 0
v -2 -8 0
v -17 -9 0
v -18 -9 0
v -18 -8 0
v -17 -8 0
v -18 -9 0
v -19 -9 0
v -19 -8 0
v -18 -8 0
v -19 -9 0
v -20 -9 0
v -20 -8 0
v -19 -8 0
v 0 -10 0
v -1 -10 0
v -1 -9 0
v 0 -9 0
v -1 -10 0
v -2 -10 0
v -2 -9 0
v -1 -9 0
v -2 -10 0
v -3 -10 0
v -3 -9 0
v -2 -9 0
v -17 -10 0
v -18 -10 0
v -18 -9 0
v -17 -9 0
v -18 -10 0
v -19 -10 0
v -19 -9 0
v -18 -9 0
v -19 -10 0
v -20 -10 0
v -20 -9 0
v -19 -9 0
v 0 -11 0
v -1 -11 0
v -1 -10 0
v 0 -10 0
v -1 -11 0
v -2 -11 0
v -2 -10 0
v -1 -10 0
v -2 -11 0
v -3 -11 0
v -3 -10 0
v -2 -10 0
v -17 -11 0
v -18 -11 0
v -18 -10 0
v -17 -10 0
v -18 -11 0
v -19 -11 0
v -19 -10 0
v -18 -10 0
v -19 -11 0
v -20 -11 0
v -20 -10 0
v -19 -10 0
v 0 -12 0
v -1 -12 0
v -1 -11 0
v 0 -11 0
v -1 -12 0
v -2 -12 0
v -2 -11 0
v -1 -11 0
v -2 -12 0
v -3 -12 0
v -3 -11 0
v -2 -11 0
v -17 -12 0
v -18 -12 0
v -18 -11 0
v -17 -11 0
v -18 -12 0
v -19 -12 0
v -19 -11 0
v -18 -11 0
v -19 -12 0
v -20 -12 0
v -20 -11 0
v -19 -11 0
v 0 -13 0
v -1 -13 0
v -1 -12 0
v 0 -12 0
v -1 -13 0
v -2 -13 0
v -2 -12 0
v -1 -12 0
v -2 -13 0
v -3 -13 0
v -3 -12 0
v -2 -12 0
v -17 -13 0
v -18 -13 0
v -18 -12 0
v -17 -12 0
v -18 -13 0
v -19 -13 0
v -19 -12 0
v -18 -12 0
v -19 -13 0
v -20 -13 0
v -20 -12 0
v -19 -12 0
v 0 -14 0
v -1 -14 0
v -1 -13 0
v 0 -13 0
v -1 -14 0
v -2 -14 0
v -2 -13 0
v -1 -13 0
v -2 -14 0
v -3 -14 0
v -3 -13 0
v -2 -13 0
v -17 -14 0
v -18 -14 0
v -18 -13 0
v -17 -13 0
v -18 -14 0
v -19 -14 0
v -19 -13 0
v -18 -13 0
v -19 -14 0
v -20 -14 0
v -20 -13 0
v -19 -13 0
v 0 -16 0
v -1 -16 0
v -1 -15 0
v 0 -15 0
v -1 -16 0
v -2 -16 0
v -2 -15 0
v -1 -15 0
v -2 -16 0
v -3 -16 0
v -3 -15 0
v -2 -15 0
v -3 -16 0
v -4 -16 0
v -4 -15 0
v -3 -15 0
v -4 -16 0
v -5 -16 0
v -5 -15 0
v -4 -15 0
v -5 -16 0
v -6 -16 0
v -6 -15 0
v -5 -15 0
v -6 -16 0
v -7 -16 0
v -7 -15 0
v -6 -15 0
v -7 -16 0
v -8 -16 0
v -8 -15 0
v -7 -15 0
v -8 -16 0
v -9 -16 0
v -9 -15 0
v -8 -15 0
v -9 -16 0
v -10 -16 0
v -10 -15 0
v -9 -15 0
v -10 -16 0
v -11 -16 0
v -11 -15 0
v -10 -15 0
v -11 -16 0
v -12 -16 0
v -12 -15 0
v -11 -15 0
v -12 -16 0
v -13 -16 0
v -13 -15 0
v -12 -15 0
v -13 -16 0
v -14 -16 0
v -14 -15 0
v -13 -15 0
v -14 -16 0
v -15 -16 0
v -15 -15 0
v -14 -15 0
v -15 -16 0
v -16 -16 0
v -16 -15 0
v -15 -15 0
v -16 -16 0
v -17 -16 0
v -17 -15 0
v -16 -15 0
v -17 -16 0
v -18 -16 0
v -18 -15 0
v -17 -15 0
v -18 -16 0
v -19 -16 0
v -19 -15 0
v -18 -15 0
v -19 -16 0
v -20 -16 0
v -20 -15 0
v -19 -15 0
v 0 -17 0
v -1 -17 0
v -1 -16 0
v 0 -16 0
v -1 -17 0
v -2 -17 0
v -2 -16 0
v -1 -16 0
v -2 -17 0
v -3 -17 0
v -3 -16 0
v -2 -16 0
v -3 -17 0
v -4 -17 0
v -4 -16 0
v -3 -16 0
v -4 -17 0
v -5 -17 0
v -5 -16 0
v -4 -16 0
v -5 -17 0
v -6 -17 0
v -6 -16 0
v -5 -16 0
v -6 -17 0
v -7 -17 0
v -7 -16 0
v -6 -16 0
v -7 -17 0
v -8 -17 0
v -8 -16 0
v -7 -16 0
v -8 -17 0
v -9 -17 0
v -9 -16 0
v -8 -16 0
v -9 -17 0
v -10 -17 0
v -10 -16 0
v -9 -16 0
v -10 -17 0
v -11 -17 0
v -11 -16 0
v -10 -16 0
v -11 -17 0
v -12 -17 0
v -12 -16 0
v -11 -16 0
v -12 -17 0
v -13 -17 0
v -13 -16 0
v -12 -16 0
v -13 -17 0
v -14 -17 0
v -14 -16 0
v -13 -16 0
v -14 -17 0
v -15 -17 0
v -15 -16 0
v -14 -16 0
v -15 -17 0
v -16 -17 0
v -16 -16 0
v -15 -16 0
v -16 -17 0
v -17 -17 0
v -17 -16 0
v -16 -16 0
v -17 -17 0
v -18 -17 0
v -18 -16 0
v -17 -16 0
v -18 -17 0
v -19 -17 0
v -19 -16 0
v -18 -16 0
v -19 -17 0
v -20 -17 0
v -20 -16 0
v -19 -16 0
v 0 -18 0
v -1 -18 0
v -1 -17 0
v 0 -17 0
v -1 -18 0
v -2 -18 0
v -2 -17 0
v -1 -17 0
v -2 -18 0
v -3 -18 0
v -3 -17 0
v -2 -17 0
v -3 -18 0
v -4 -18 0
v -4 -17 0
v -3 -17 0
v -4 -18 0
v -5 -18 0
v -5 -17 0
v -4 -17 0
v -5 -18 0
v -6 -18 0
v -6 -17 0
v -5 -17 0
v -6 -18 0
v -7 -18 0
v -7 -17 0
v -6 -17 0
v -7 -18 0
v -8 -18 0
v -8 -17 0
v -7 -17 0
v -8 -18 0
v -9 -18 0
v -9 -17 0
v -8 -17 0
v -9 -18 0
v -10 -18 0
v -10 -17 0
v -9 -17 0
v -10 -18 0
v -11 -18 0
v -11 -17 0
v -10 -17 0
v -11 -18 0
v -12 -18 0
v -12 -17 0
v -11 -17 0
v -12 -18 0
v -13 -18 0
v -13 -17 0
v -12 -17 0
v -13 -18 0
v -14 -18 0
v -14 -17 0
v -13 -17 0
v -14 -18 0
v -15 -18 0
v -15 -17 0
v -14 -17 0
v -15 -18 0
v -16 -18 0
v -16 -17 0
v -15 -17 0
v -16 -18 0
v -17 -18 0
v -17 -17 0
v -16 -17 0
v -17 -18 0
v -18 -18 0
v -18 -17 0
v -17 -17 0
v -18 -18 0
v -19 -18 0
v -19 -17 0
v -18 -17 0
v -19 -18 0
v -20 -18 0
v -20 -17 0
v -19 -17 0
v 0 -19 0
v -1 -19 0
v -1 -18 0
v 0 -18 0
v -1 -19 0
v -2 -19 0
v -2 -18 0
v -1 -18 0
v -2 -19 0
v -3 -19 0
v -3 -18 0
v -2 -18 0
v -3 -19 0
v -4 -19 0
v -4 -18 0
v -3 -18 0
v -4 -19 0
v -5 -19 0
v -5 -18 0
v -4 -18 0
v -5 -19 0
v -6 -19 0
v -6 -18 0
v -5 -18 0
v -6 -19 0
v -7 -19 0
v -7 -18 0
v -6 -18 0
v -7 -19 0
v -8 -19 0
v -8 -18 0
v -7 -18 0
v -8 -19 0
v -9 -19 0
v -9 -18 0
v -8 -18 0
v -9 -19 0
v -10 -19 0
v -10 -18 0
v -9 -18 0
v -10 -19 0
v -11 -19 0
v -11 -18 0
v -10 -18 0
v -11 -19 0
v -12 -19 0
v -12 -18 0
v -11 -18 0
v -12 -19 0
v -13 -19 0
v -13 -18 0
v -12 -18 0
v -13 -19 0
v -14 -19 0
v -14 -18 0
v -13 -18 0
v -14 -19 0
v -15 -19 0
v -15 -18 0
v -14 -18 0
v -15 -19 0
v -16 -19 0
v -16 -18 0
v -15 -18 0
v -16 -19 0
v -17 -19 0
v -17 -18 0
v -16 -18 0
v -17 -19 0
v -18 -19 0
v -18 -18 0
v -17 -18 0
v -18 -19 0
v -19 -19 0
v -19 -18 0
v -18 -18 0
v -19 -19 0
v -20 -19 0
v -20 -18 0
v -19 -18 0
v 0 -20 0
v -1 -20 0
v -1 -19 0
v 0 -19 0
v -1 -20 0
v -2 -20 0
v -2 -19 0
v -1 -19 0
v -2 -20 0
v -3 -20 0
v -3 -19 0
v -2 -19 0
v -3 -20 0
v -4 -20 0
v -4 -19 0
v -3 -19 0
v -4 -20 0
v -5 -20 0
v -5 -19 0
v -4 -19 0
v -5 -20 0
v -6 -20 0
v -6 -19 0
v -5 -19 0
v -6 -20 0
v -7 -20 0
v -7 -19 0
v -6 -19 0
v -7 -20 0
v -8 -20 0
v -8 -19 0
v -7 -19 0
v -8 -20 0
v -9 -20 0
v -9 -19 0
v -8 -19 0
v -9 -20 0
v -10 -20 0
v -10 -19 0
v -9 -19 0
v -10 -20 0
v -11 -20 0
v -11 -19 0
v -10 -19 0
v -11 -20 0
v -12 -20 0
v -12 -19 0
v -11 -19 0
v -12 -20 0
v -13 -20 0
v -13 -19 0
v -12 -19 0
v -13 -20 0
v -14 -20 0
v -14 -19 0
v -13 -19 0
v -14 -20 0
v -15 -20 0
v -15 -19 0
v -14 -19 0
v -15 -20 0
v -16 -20 0
v -16 -19 0
v -15 -19 0
v -16 -20 0
v -17 -20 0
v -17 -19 0
v -16 -19 0
v -17 -20 0
v -18 -20 0
v -18 -19 0
v -17 -19 0
v -18 -20 0
v -19 -20 0
v -19 -19 0
v -18 -19 0
v -19 -20 0
v -20 -20 0
v -20 -19 0
v -19 -19 0

# Texture cooridinates (Count = 34)
vt 0.9375 0.96875
vt 0.96875 0.96875
vt 0.96875 1
vt 0.9375 1
vt 1 0.96875
vt 1 1
vt 0.9375 0.9375
vt 0.96875 0.9375
vt 1 0.9375
vt 0.9375 0.90625
vt 0.96875 0.90625
vt 1 0.90625
vt 0.9375 0.875
vt 0.96875 0.875
vt 1 0.875
vt 0.9375 0.84375
vt 0.96875 0.84375
vt 1 0.84375
vt 0.75 0.5
vt 0.78125 0.5
vt 0.78125 0.53125
vt 0.75 0.53125
vt 0.8125 0.5
vt 0.8125 0.53125
vt 0.84375 0.5
vt 0.84375 0.53125
vt 0.75 0.46875
vt 0.78125 0.46875
vt 0.8125 0.46875
vt 0.84375 0.46875
vt 0.75 0.4375
vt 0.78125 0.4375
vt 0.8125 0.4375
vt 0.84375 0.4375

# Normal
vn 0 0 -1

# Mesh description
g level_desert_mesh_0002

# Faces
f 1/1/1 2/2/1 3/3/1 4/4/1
f 5/2/1 6/5/1 7/6/1 8/3/1
f 9/1/1 10/2/1 11/3/1 12/4/1
f 13/2/1 14/5/1 15/6/1 16/3/1
f 17/1/1 18/2/1 19/3/1 20/4/1
f 21/2/1 22/5/1 23/6/1 24/3/1
f 25/1/1 26/2/1 27/3/1 28/4/1
f 29/2/1 30/5/1 31/6/1 32/3/1
f 33/1/1 34/2/1 35/3/1 36/4/1
f 37/2/1 38/5/1 39/6/1 40/3/1
f 41/1/1 42/2/1 43/3/1 44/4/1
f 45/2/1 46/5/1 47/6/1 48/3/1
f 49/1/1 50/2/1 51/3/1 52/4/1
f 53/2/1 54/5/1 55/6/1 56/3/1
f 57/1/1 58/2/1 59/3/1 60/4/1
f 61/2/1 62/5/1 63/6/1 64/3/1
f 65/1/1 66/2/1 67/3/1 68/4/1
f 69/2/1 70/5/1 71/6/1 72/3/1
f 73/1/1 74/2/1 75/3/1 76/4/1
f 77/2/1 78/5/1 79/6/1 80/3/1
f 81/7/1 82/8/1 83/2/1 84/1/1
f 85/8/1 86/9/1 87/5/1 88/2/1
f 89/7/1 90/8/1 91/2/1 92/1/1
f 93/8/1 94/9/1 95/5/1 96/2/1
f 97/7/1 98/8/1 99/2/1 100/1/1
f 101/8/1 102/9/1 103/5/1 104/2/1
f 105/7/1 106/8/1 107/2/1 108/1/1
f 109/8/1 110/9/1 111/5/1 112/2/1
f 113/7/1 114/8/1 115/2/1 116/1/1
f 117/8/1 118/9/1 119/5/1 120/2/1
f 121/7/1 122/8/1 123/2/1 124/1/1
f 125/8/1 126/9/1 127/5/1 128/2/1
f 129/7/1 130/8/1 131/2/1 132/1/1
f 133/8/1 134/9/1 135/5/1 136/2/1
f 137/7/1 138/8/1 139/2/1 140/1/1
f 141/8/1 142/9/1 143/5/1 144/2/1
f 145/7/1 146/8/1 147/2/1 148/1/1
f 149/8/1 150/9/1 151/5/1 152/2/1
f 153/7/1 154/8/1 155/2/1 156/1/1
f 157/8/1 158/9/1 159/5/1 160/2/1
f 161/10/1 162/11/1 163/8/1 164/7/1
f 165/11/1 166/12/1 167/9/1 168/8/1
f 169/10/1 170/11/1 171/8/1 172/7/1
f 173/11/1 174/12/1 175/9/1 176/8/1
f 177/10/1 178/11/1 179/8/1 180/7/1
f 181/11/1 182/12/1 183/9/1 184/8/1
f 185/10/1 186/11/1 187/8/1 188/7/1
f 189/11/1 190/12/1 191/9/1 192/8/1
f 193/10/1 194/11/1 195/8/1 196/7/1
f 197/11/1 198/12/1 199/9/1 200/8/1
f 201/10/1 202/11/1 203/8/1 204/7/1
f 205/11/1 206/12/1 207/9/1 208/8/1
f 209/10/1 210/11/1 211/8/1 212/7/1
f 213/11/1 214/12/1 215/9/1 216/8/1
f 217/10/1 218/11/1 219/8/1 220/7/1
f 221/11/1 222/12/1 223/9/1 224/8/1
f 225/10/1 226/11/1 227/8/1 228/7/1
f 229/11/1 230/12/1 231/9/1 232/8/1
f 233/10/1 234/11/1 235/8/1 236/7/1
f 237/11/1 238/12/1 239/9/1 240/8/1
f 241/13/1 242/14/1 243/11/1 244/10/1
f 245/14/1 246/15/1 247/12/1 248/11/1
f 249/13/1 250/14/1 251/11/1 252/10/1
f 253/14/1 254/15/1 255/12/1 256/11/1
f 257/13/1 258/14/1 259/11/1 260/10/1
f 261/14/1 262/15/1 263/12/1 264/11/1
f 265/13/1 266/14/1 267/11/1 268/10/1
f 269/14/1 270/15/1 271/12/1 272/11/1
f 273/13/1 274/14/1 275/11/1 276/10/1
f 277/14/1 278/15/1 279/12/1 280/11/1
f 281/13/1 282/14/1 283/11/1 284/10/1
f 285/14/1 286/15/1 287/12/1 288/11/1
f 289/13/1 290/14/1 291/11/1 292/10/1
f 293/14/1 294/15/1 295/12/1 296/11/1
f 297/13/1 298/14/1 299/11/1 300/10/1
f 301/14/1 302/15/1 303/12/1 304/11/1
f 305/13/1 306/14/1 307/11/1 308/10/1
f 309/14/1 310/15/1 311/12/1 312/11/1
f 313/13/1 314/14/1 315/11/1 316/10/1
f 317/14/1 318/15/1 319/12/1 320/11/1
f 321/16/1 322/17/1 323/14/1 324/13/1
f 325/17/1 326/18/1 327/15/1 328/14/1
f 329/16/1 330/17/1 331/14/1 332/13/1
f 333/17/1 334/18/1 335/15/1 336/14/1
f 337/16/1 338/17/1 339/14/1 340/13/1
f 341/17/1 342/18/1 343/15/1 344/14/1
f 345/16/1 346/17/1 347/14/1 348/13/1
f 349/17/1 350/18/1 351/15/1 352/14/1
f 353/16/1 354/17/1 355/14/1 356/13/1
f 357/17/1 358/18/1 359/15/1 360/14/1
f 361/16/1 362/17/1 363/14/1 364/13/1
f 365/17/1 366/18/1 367/15/1 368/14/1
f 369/16/1 370/17/1 371/14/1 372/13/1
f 373/17/1 374/18/1 375/15/1 376/14/1
f 377/16/1 378/17/1 379/14/1 380/13/1
f 381/17/1 382/18/1 383/15/1 384/14/1
f 385/16/1 386/17/1 387/14/1 388/13/1
f 389/17/1 390/18/1 391/15/1 392/14/1
f 393/16/1 394/17/1 395/14/1 396/13/1
f 397/17/1 398/18/1 399/15/1 400/14/1
f 401/19/1 402/20/1 403/21/1 404/22/1
f 405/20/1 406/23/1 407/24/1 408/21/1
f 409/23/1 410/25/1 411/26/1 412/24/1
f 413/19/1 414/20/1 415/21/1 416/22/1
f 417/20/1 418/23/1 419/24/1 420/21/1
f 421/23/1 422/25/1 423/26/1 424/24/1
f 425/27/1 426/28/1 427/20/1 428/19/1
f 429/28/1 430/29/1 431/23/1 432/20/1
f 433/29/1 434/30/1 435/25/1 436/23/1
f 437/27/1 438/28/1 439/20/1 440/19/1
f 441/28/1 442/29/1 443/23/1 444/20/1
f 445/29/1 446/30/1 447/25/1 448/23/1
f 449/31/1 450/32/1 451/28/1 452/27/1
f 453/32/1 454/33/1 455/29/1 456/28/1
f 457/33/1 458/34/1 459/30/1 460/29/1
f 461/31/1 462/32/1 463/28/1 464/27/1
f 465/32/1 466/33/1 467/29/1 468/28/1
f 469/33/1 470/34/1 471/30/1 472/29/1
f 473/19/1 474/20/1 475/21/1 476/22/1
f 477/20/1 478/23/1 479/24/1 480/21/1
f 481/23/1 482/25/1 483/26/1 484/24/1
f 485/19/1 486/20/1 487/21/1 488/22/1
f 489/20/1 490/23/1 491/24/1 492/21/1
f 493/23/1 494/25/1 495/26/1 496/24/1
f 497/27/1 498/28/1 499/20/1 500/19/1
f 501/28/1 502/29/1 503/23/1 504/20/1
f 505/29/1 506/30/1 507/25/1 508/23/1
f 509/27/1 510/28/1 511/20/1 512/19/1
f 513/28/1 514/29/1 515/23/1 516/20/1
f 517/29/1 518/30/1 519/25/1 520/23/1
f 521/31/1 522/32/1 523/28/1 524/27/1
f 525/32/1 526/33/1 527/29/1 528/28/1
f 529/33/1 530/34/1 531/30/1 532/29/1
f 533/31/1 534/32/1 535/28/1 536/27/1
f 537/32/1 538/33/1 539/29/1 540/28/1
f 541/33/1 542/34/1 543/30/1 544/29/1
f 545/19/1 546/20/1 547/21/1 548/22/1
f 549/20/1 550/23/1 551/24/1 552/21/1
f 553/23/1 554/25/1 555/26/1 556/24/1
f 557/19/1 558/20/1 559/21/1 560/22/1
f 561/20/1 562/23/1 563/24/1 564/21/1
f 565/23/1 566/25/1 567/26/1 568/24/1
f 569/27/1 570/28/1 571/20/1 572/19/1
f 573/28/1 574/29/1 575/23/1 576/20/1
f 577/29/1 578/30/1 579/25/1 580/23/1
f 581/27/1 582/28/1 583/20/1 584/19/1
f 585/28/1 586/29/1 587/23/1 588/20/1
f 589/29/1 590/30/1 591/25/1 592/23/1
f 593/31/1 594/32/1 595/28/1 596/27/1
f 597/32/1 598/33/1 599/29/1 600/28/1
f 601/33/1 602/34/1 603/30/1 604/29/1
f 605/31/1 606/32/1 607/28/1 608/27/1
f 609/32/1 610/33/1 611/29/1 612/28/1
f 613/33/1 614/34/1 615/30/1 616/29/1
f 617/1/1 618/2/1 619/3/1 620/4/1
f 621/2/1 622/5/1 623/6/1 624/3/1
f 625/1/1 626/2/1 627/3/1 628/4/1
f 629/2/1 630/5/1 631/6/1 632/3/1
f 633/1/1 634/2/1 635/3/1 636/4/1
f 637/2/1 638/5/1 639/6/1 640/3/1
f 641/1/1 642/2/1 643/3/1 644/4/1
f 645/2/1 646/5/1 647/6/1 648/3/1
f 649/1/1 650/2/1 651/3/1 652/4/1
f 653/2/1 654/5/1 655/6/1 656/3/1
f 657/1/1 658/2/1 659/3/1 660/4/1
f 661/2/1 662/5/1 663/6/1 664/3/1
f 665/1/1 666/2/1 667/3/1 668/4/1
f 669/2/1 670/5/1 671/6/1 672/3/1
f 673/1/1 674/2/1 675/3/1 676/4/1
f 677/2/1 678/5/1 679/6/1 680/3/1
f 681/1/1 682/2/1 683/3/1 684/4/1
f 685/2/1 686/5/1 687/6/1 688/3/1
f 689/1/1 690/2/1 691/3/1 692/4/1
f 693/2/1 694/5/1 695/6/1 696/3/1
f 697/7/1 698/8/1 699/2/1 700/1/1
f 701/8/1 702/9/1 703/5/1 704/2/1
f 705/7/1 706/8/1 707/2/1 708/1/1
f 709/8/1 710/9/1 711/5/1 712/2/1
f 713/7/1 714/8/1 715/2/1 716/1/1
f 717/8/1 718/9/1 719/5/1 720/2/1
f 721/7/1 722/8/1 723/2/1 724/1/1
f 725/8/1 726/9/1 727/5/1 728/2/1
f 729/7/1 730/8/1 731/2/1 732/1/1
f 733/8/1 734/9/1 735/5/1 736/2/1
f 737/7/1 738/8/1 739/2/1 740/1/1
f 741/8/1 742/9/1 743/5/1 744/2/1
f 745/7/1 746/8/1 747/2/1 748/1/1
f 749/8/1 750/9/1 751/5/1 752/2/1
f 753/7/1 754/8/1 755/2/1 756/1/1
f 757/8/1 758/9/1 759/5/1 760/2/1
f 761/7/1 762/8/1 763/2/1 764/1/1
f 765/8/1 766/9/1 767/5/1 768/2/1
f 769/7/1 770/8/1 771/2/1 772/1/1
f 773/8/1 774/9/1 775/5/1 776/2/1
f 777/10/1 778/11/1 779/8/1 780/7/1
f 781/11/1 782/12/1 783/9/1 784/8/1
f 785/10/1 786/11/1 787/8/1 788/7/1
f 789/11/1 790/12/1 791/9/1 792/8/1
f 793/10/1 794/11/1 795/8/1 796/7/1
f 797/11/1 798/12/1 799/9/1 800/8/1
f 801/10/1 802/11/1 803/8/1 804/7/1
f 805/11/1 806/12/1 807/9/1 808/8/1
f 809/10/1 810/11/1 811/8/1 812/7/1
f 813/11/1 814/12/1 815/9/1 816/8/1
f 817/10/1 818/11/1 819/8/1 820/7/1
f 821/11/1 822/12/1 823/9/1 824/8/1
f 825/10/1 826/11/1 827/8/1 828/7/1
f 829/11/1 830/12/1 831/9/1 832/8/1
f 833/10/1 834/11/1 835/8/1 836/7/1
f 837/11/1 838/12/1 839/9/1 840/8/1
f 841/10/1 842/11/1 843/8/1 844/7/1
f 845/11/1 846/12/1 847/9/1 848/8/1
f 849/10/1 850/11/1 851/8/1 852/7/1
f 853/11/1 854/12/1 855/9/1 856/8/1
f 857/13/1 858/14/1 859/11/1 860/10/1
f 861/14/1 862/15/1 863/12/1 864/11/1
f 865/13/1 866/14/1 867/11/1 868/10/1
f 869/14/1 870/15/1 871/12/1 872/11/1
f 873/13/1 874/14/1 875/11/1 876/10/1
f 877/14/1 878/15/1 879/12/1 880/11/1
f 881/13/1 882/14/1 883/11/1 884/10/1
f 885/14/1 886/15/1 887/12/1 888/11/1
f 889/13/1 890/14/1 891/11/1 892/10/1
f 893/14/1 894/15/1 895/12/1 896/11/1
f 897/13/1 898/14/1 899/11/1 900/10/1
f 901/14/1 902/15/1 903/12/1 904/11/1
f 905/13/1 906/14/1 907/11/1 908/10/1
f 909/14/1 910/15/1 911/12/1 912/11/1
f 913/13/1 914/14/1 915/11/1 916/10/1
f 917/14/1 918/15/1 919/12/1 920/11/1
f 921/13/1 922/14/1 923/11/1 924/10/1
f 925/14/1 926/15/1 927/12/1 928/11/1
f 929/13/1 930/14/1 931/11/1 932/10/1
f 933/14/1 934/15/1 935/12/1 936/11/1
f 937/16/1 938/17/1 939/14/1 940/13/1
f 941/17/1 942/18/1 943/15/1 944/14/1
f 945/16/1 946/17/1 947/14/1 948/13/1
f 949/17/1 950/18/1 951/15/1 952/14/1
f 953/16/1 954/17/1 955/14/1 956/13/1
f 957/17/1 958/18/1 959/15/1 960/14/1
f 961/16/1 962/17/1 963/14/1 964/13/1
f 965/17/1 966/18/1 967/15/1 968/14/1
f 969/16/1 970/17/1 971/14/1 972/13/1
f 973/17/1 974/18/1 975/15/1 976/14/1
f 977/16/1 978/17/1 979/14/1 980/13/1
f 981/17/1 982/18/1 983/15/1 984/14/1
f 985/16/1 986/17/1 987/14/1 988/13/1
f 989/17/1 990/18/1 991/15/1 992/14/1
f 993/16/1 994/17/1 995/14/1 996/13/1
f 997/17/1 998/18/1 999/15/1 1000/14/1
f 1001/16/1 1002/17/1 1003/14/1 1004/13/1
f 1005/17/1 1006/18/1 1007/15/1 1008/14/1
f 1009/16/1 1010/17/1 1011/14/1 1012/13/1
f 1013/17/1 1014/18/1 1015/15/1 1016/14/1

